<mxfile host="app.diagrams.net" modified="2023-06-29T13:41:30.918Z" agent="Mozilla/5.0 (Windows NT 10.0; Win64; x64) AppleWebKit/537.36 (KHTML, like Gecko) Chrome/114.0.0.0 Safari/537.36" etag="A5farWEsXeY0T8m2fv9z" version="21.5.2" type="google">
  <diagram name="部屬圖" id="gQMeZRhicxSpHA1xXYG5">
    <mxGraphModel grid="1" page="1" gridSize="10" guides="1" tooltips="1" connect="1" arrows="1" fold="1" pageScale="1" pageWidth="827" pageHeight="1169" math="0" shadow="0">
      <root>
        <mxCell id="0" />
        <mxCell id="1" parent="0" />
        <mxCell id="3ap61krqkwAVrcAc1VBk-8" value="" style="edgeStyle=orthogonalEdgeStyle;rounded=0;orthogonalLoop=1;jettySize=auto;html=1;" edge="1" parent="1" source="3ap61krqkwAVrcAc1VBk-2" target="3ap61krqkwAVrcAc1VBk-5">
          <mxGeometry relative="1" as="geometry" />
        </mxCell>
        <mxCell id="3ap61krqkwAVrcAc1VBk-2" value="&amp;lt;&amp;lt;device&amp;gt;&amp;gt;&lt;br&gt;Android Mobile Phone" style="verticalAlign=top;align=center;shape=cube;size=10;direction=south;fontStyle=0;html=1;boundedLbl=1;spacingLeft=5;whiteSpace=wrap;" vertex="1" parent="1">
          <mxGeometry x="170" y="190" width="270" height="160" as="geometry" />
        </mxCell>
        <mxCell id="3ap61krqkwAVrcAc1VBk-3" value="&amp;lt;&amp;lt;executonEnvironmentr&amp;gt;&amp;gt;&lt;br&gt;Android OS" style="verticalAlign=top;align=center;shape=cube;size=10;direction=south;html=1;boundedLbl=1;spacingLeft=5;whiteSpace=wrap;" vertex="1" parent="3ap61krqkwAVrcAc1VBk-2">
          <mxGeometry width="220" height="80" relative="1" as="geometry">
            <mxPoint x="25" y="70" as="offset" />
          </mxGeometry>
        </mxCell>
        <mxCell id="3ap61krqkwAVrcAc1VBk-4" value="&amp;lt;&amp;lt;device&amp;gt;&amp;gt;&lt;br&gt;Server：Windows" style="verticalAlign=top;align=center;shape=cube;size=10;direction=south;fontStyle=0;html=1;boundedLbl=1;spacingLeft=5;whiteSpace=wrap;" vertex="1" parent="1">
          <mxGeometry x="530" y="160" width="270" height="160" as="geometry" />
        </mxCell>
        <mxCell id="3ap61krqkwAVrcAc1VBk-5" value="&amp;lt;&amp;lt;executonEnvironmentr&amp;gt;&amp;gt;&lt;br&gt;MySQL" style="verticalAlign=top;align=center;shape=cube;size=10;direction=south;html=1;boundedLbl=1;spacingLeft=5;whiteSpace=wrap;" vertex="1" parent="3ap61krqkwAVrcAc1VBk-4">
          <mxGeometry width="220" height="80" relative="1" as="geometry">
            <mxPoint x="25" y="70" as="offset" />
          </mxGeometry>
        </mxCell>
        <mxCell id="3ap61krqkwAVrcAc1VBk-16" style="edgeStyle=orthogonalEdgeStyle;rounded=0;orthogonalLoop=1;jettySize=auto;html=1;exitX=1;exitY=0.5;exitDx=0;exitDy=0;entryX=0.35;entryY=1.004;entryDx=0;entryDy=0;entryPerimeter=0;dashed=1;" edge="1" parent="1" source="3ap61krqkwAVrcAc1VBk-9" target="3ap61krqkwAVrcAc1VBk-2">
          <mxGeometry relative="1" as="geometry" />
        </mxCell>
        <mxCell id="3ap61krqkwAVrcAc1VBk-9" value="&amp;lt;&amp;lt;artifact&amp;gt;&amp;gt;&lt;br&gt;&lt;br&gt;&lt;b&gt;Hold情緒.apk&lt;/b&gt;" style="html=1;align=center;verticalAlign=middle;dashed=0;whiteSpace=wrap;" vertex="1" parent="1">
          <mxGeometry x="-220" y="120" width="200" height="110" as="geometry" />
        </mxCell>
        <mxCell id="3ap61krqkwAVrcAc1VBk-11" value="" style="shape=mxgraph.bpmn.data;labelPosition=center;verticalLabelPosition=bottom;align=center;verticalAlign=top;size=15;html=1;" vertex="1" parent="1">
          <mxGeometry x="-60" y="130" width="30" height="40" as="geometry" />
        </mxCell>
        <mxCell id="3ap61krqkwAVrcAc1VBk-17" style="edgeStyle=orthogonalEdgeStyle;rounded=0;orthogonalLoop=1;jettySize=auto;html=1;exitX=1;exitY=0.5;exitDx=0;exitDy=0;entryX=0.575;entryY=1;entryDx=0;entryDy=0;entryPerimeter=0;dashed=1;" edge="1" parent="1" source="3ap61krqkwAVrcAc1VBk-14" target="3ap61krqkwAVrcAc1VBk-2">
          <mxGeometry relative="1" as="geometry" />
        </mxCell>
        <mxCell id="3ap61krqkwAVrcAc1VBk-14" value="&amp;lt;&amp;lt;artifact&amp;gt;&amp;gt;&lt;br&gt;&lt;br&gt;&lt;b&gt;Hold情緒&lt;/b&gt;" style="html=1;align=center;verticalAlign=middle;dashed=0;whiteSpace=wrap;" vertex="1" parent="1">
          <mxGeometry x="-220" y="290" width="200" height="110" as="geometry" />
        </mxCell>
        <mxCell id="3ap61krqkwAVrcAc1VBk-15" value="" style="shape=mxgraph.bpmn.data;labelPosition=center;verticalLabelPosition=bottom;align=center;verticalAlign=top;size=15;html=1;" vertex="1" parent="1">
          <mxGeometry x="-60" y="300" width="30" height="40" as="geometry" />
        </mxCell>
      </root>
    </mxGraphModel>
  </diagram>
</mxfile>
